<?xml version="1.0" standalone="no"?>
<!DOCTYPE svg PUBLIC "-//W3C//DTD SVG 1.1//EN" "http://www.w3.org/Graphics/SVG/1.1/DTD/svg11.dtd" >
<!--
2013-9-30: Created.
-->
<svg>
<metadata>
Created by iconfont
</metadata>
<defs>

<font id="iconfont" horiz-adv-x="1024" >
  <font-face
    font-family="iconfont"
    font-weight="500"
    font-stretch="normal"
    units-per-em="1024"
    ascent="896"
    descent="-128"
  />
    <missing-glyph />
    
    <glyph glyph-name="x" unicode="x" horiz-adv-x="1001"
d="M281 543q-27 -1 -53 -1h-83q-18 0 -36.5 -6t-32.5 -18.5t-23 -32t-9 -45.5v-76h912v41q0 16 -0.5 30t-0.5 18q0 13 -5 29t-17 29.5t-31.5 22.5t-49.5 9h-133v-97h-438v97zM955 310v-52q0 -23 0.5 -52t0.5 -58t-10.5 -47.5t-26 -30t-33 -16t-31.5 -4.5q-14 -1 -29.5 -0.5
t-29.5 0.5h-32l-45 128h-439l-44 -128h-29h-34q-20 0 -45 1q-25 0 -41 9.5t-25.5 23t-13.5 29.5t-4 30v167h911zM163 247q-12 0 -21 -8.5t-9 -21.5t9 -21.5t21 -8.5q13 0 22 8.5t9 21.5t-9 21.5t-22 8.5zM316 123q-8 -26 -14 -48q-5 -19 -10.5 -37t-7.5 -25t-3 -15t1 -14.5
t9.5 -10.5t21.5 -4h37h67h81h80h64h36q23 0 34 12t2 38q-5 13 -9.5 30.5t-9.5 34.5q-5 19 -11 39h-368zM336 498v228q0 11 2.5 23t10 21.5t20.5 15.5t34 6h188q31 0 51.5 -14.5t20.5 -52.5v-227h-327z" />
    

    
    <glyph glyph-name="yousanjiao" unicode="&#983080;" d="M384.30607 555.795611l0-512.41186 320.259338 256.206443L384.30607 555.795611z"  horiz-adv-x="1024" />

    
    <glyph glyph-name="caifutong" unicode="&#58884;" d="M774.4 460 774.4 536.8 249.6 536.8l0-76.8 217.6 0L467.2 44l83.2 0L550.4 460 774.4 460zM832 588l0-262.4c0 0-25.6-275.2-320-416C204.8 44 192 338.4 192 338.4L192 588l320 121.6L832 588zM870.4 325.6 870.4 632.8 512 773.6 147.2 632.8l0-281.6c0 0 12.8-339.2 364.8-499.2C844.8 12 870.4 325.6 870.4 325.6zM915.2 652l0-332.8c0 0-32-345.6-403.2-531.2-384 179.2-403.2 550.4-403.2 550.4L108.8 652 512 812 915.2 652z"  horiz-adv-x="1024" />

    
    <glyph glyph-name="anzhuo" unicode="&#58969;" d="M219.452 475.714c185.047 0 369.13 0 554.715 0 0-4.632 0-8.675 0-12.717 0-138.039 0.026-276.078-0.012-414.116-0.014-46.672-24.905-71.341-71.78-71.36-11.659-0.004-23.316 0-34.177 0 0-49.449 0.537-97.505-0.197-145.539-0.455-29.788-26.202-54.516-55.71-55.596-31.698-1.164-60.635 20.804-61.759 51.236-1.814 49.204-0.487 98.52-0.487 148.842-34.805 0-70.482 0-106.342 0 0-19.545 0.036-39.11-0.008-58.674-0.065-28.819 0.553-57.666-0.494-86.448-1.024-28.176-23.177-51.212-50.497-54.662-28.987-3.664-56.104 13.126-64.712 40.557-1.901 6.061-3.019 12.626-3.060 18.968-0.27 40.954-0.201 81.912-0.076 122.867 0.017 5.618 0.96 11.235 1.621 18.45-13.791 0-27.318-0.082-40.846 0.016-40.042 0.289-66.1 26.245-66.132 66.414-0.109 140.312-0.044 280.626-0.045 420.94-0 3.363-0 6.729-0 10.821zM774.41 516.656c-185.668 0-369.734 0-555.503 0 5.162 96.024 59.719 155.721 140.815 198.11-8.264 12.524-16.288 24.712-24.344 36.879-5.856 8.846-11.795 17.638-17.625 26.5-4.11 6.248-10.698 13.295-1.562 19.532 9.864 6.734 13.893-2.685 18.245-9.114 10.41-15.372 20.681-30.842 30.985-46.287 12.69-19.027 12.678-19.022 34.49-12.664 69.375 20.22 138.291 19.075 206.729-4.452 2.451-0.845 4.961-1.524 8.17-2.5 14.186 21.244 28.249 42.309 42.315 63.371 1.683 2.523 3.329 5.067 5.068 7.552 3.96 5.666 8.991 8.719 15.323 4.047 5.73-4.225 4.755-9.619 1.138-15.024-12.224-18.262-24.368-36.578-36.531-54.877-2.716-4.087-5.387-8.203-8.494-12.942 80.652-42.007 135.696-101.821 140.783-198.133zM645.27 624.668c0.167 16.064-13.282 29.732-29.435 29.911-16.304 0.183-29.587-12.945-29.719-29.367-0.129-16.617 12.601-29.545 29.194-29.65 16.527-0.101 29.79 12.785 29.96 29.107zM407.146 625.379c-0.213 16.402-13.604 29.513-29.836 29.207-16.118-0.302-29.56-14.111-29.276-30.081 0.288-16.286 13.661-29.137 30.134-28.961 16.562 0.178 29.196 13.183 28.979 29.834zM932.445 289.709c-0.002-41.29 0.106-82.584-0.034-123.875-0.126-36.346-25.113-62.591-59.242-62.569-34.103 0.021-59.302 26.442-59.337 62.562-0.078 83.722-0.171 167.444 0.068 251.164 0.087 30.823 22.671 55.563 52.468 58.664 31.012 3.225 58.188-16.013 64.758-46.275 1.268-5.843 1.252-12.034 1.266-18.069 0.102-40.533 0.053-81.069 0.051-121.604zM179.28 289.707c0-43.191 0.41-86.382-0.151-129.561-0.344-26.474-18.984-48.775-44.353-55.251-24.804-6.328-52.007 3.959-64.702 26.508-5.175 9.19-8.924 20.588-9.011 31.018-0.711 84.858-0.626 169.722-0.288 254.582 0.135 33.445 26.531 59.104 59.362 59.104 32.97-0.002 58.747-25.271 59.122-59.111 0.471-42.425 0.113-84.86 0.113-127.289-0.031 0.001-0.062 0.001-0.093 0.001z"  horiz-adv-x="1024" />

    
    <glyph glyph-name="dianhua" unicode="&#13860;" d="M968.542944 734.242919c-5.760191 35.411511-34.825157 71.320349-78.905094 100.410897-36.96182 24.419156-118.662587 50.073442-154.811902 50.073442-18.240433 0-32.723286-3.425006-41.136909-16.756639l-8.53335-7.272637-2.882654-2.456958-1.888-3.28379c-38.256302-66.51695-77.278037-177.742147-80.039941-222.525096l-0.350994-5.696746 2.477424-5.142114c4.927219-10.224876 12.335956-16.756639 23.62814-23.11444 2.959402-1.665942 15.257495-7.985882 18.426675-9.737782 5.641487-3.121084 11.036357-5.321192 20.290115-8.618285 4.063549-1.439792 6.002714-2.1295 7.886621-2.821255 19.266809-7.078209 24.898063-12.213159 25.77913-25.508977 0.525979-8.04421-4.198625-21.422915-16.549931-42.696428-17.746176-30.525224-49.006134-72.975035-92.735078-125.767402l-21.280676-29.470195-21.023826-20.635993c-45.077661-51.967582-81.190137-89.140203-108.212584-111.563912-18.821671-15.629979-31.335682-22.704095-39.884382-23.899316-3.289929-0.453325-6.564509-0.681522-9.676383-0.681522-3.019777 0-6.637164 0.738827-10.789741 2.292206-10.552334 3.946892-22.970154 12.495592-36.3243 24.536836-8.278547 7.466042-13.863752 13.186324-24.759917 24.876574-16.225543 17.371646-30.271444 27.121707-47.174416 30.575366l-4.879124 0.9967-4.828982-1.213641c-36.474726-9.168824-101.170191-55.465243-193.086623-131.263579l-6.78452-5.594415-1.022283-8.733918-1.030469-8.804527c-2.809999-2.24411-3.698229-5.426593-5.375427-11.460006-0.295735-5.220908-0.295735-5.220908 0.028653-6.977925 0.74599-3.327792 0.74599-3.327792 1.14508-4.497431 0.188288-0.588401 2.050706-6.244214 2.948145-9.007141l-0.005117 0.01535c24.209378-74.779124 135.205355-191.799304 206.081589-191.935404 59.794851 3.103688 129.692804 31.835056 204.216101 82.665745 75.840292 51.709709 155.419745 125.848243 230.443439 214.533075l56.824193 67.161632c74.919317 88.598874 134.161582 178.624237 171.370019 260.592087C962.728518 606.600821 977.667765 678.353005 968.542944 734.242919zM57.603953 96.293369c0.119727-0.195451 0.543376-0.765433 1.1328-1.484817C57.664328 95.518726 57.618279 95.812415 57.603953 96.293369zM886.290615 543.89978c-35.416628-78.021981-92.472088-164.724669-164.933423-250.41633l-56.821123-67.158562c-72.611761-85.833901-149.334143-157.310815-221.696218-206.649524-68.473511-46.703695-131.231857-72.500221-180.681082-75.094302-45.975101 0.119727-140.764977 99.17065-162.237011 158.412916l0.204661 1.7519 1.7519 14.965853c76.393901 62.653969 135.080511 104.862279 163.801646 115.341958 5.246491-2.376117 11.382235-7.319709 19.589151-16.105816 11.715833-12.570293 17.940604-18.946514 27.448142-27.51875 17.075911-15.397688 33.615609-26.784016 50.291406-33.020044 8.785084-3.285836 17.489326-5.062296 26.109658-5.062296 5.123694 0 10.392698 0.366344 15.690354 1.096984 18.505469 2.587941 37.272905 13.19758 61.802578 33.56649C495.820506 212.250334 533.442358 250.976334 578.74003 303.308213l21.131273 20.641109 2.427282 2.827395 21.479197 29.827329c44.229341 53.318346 76.769454 97.506754 95.965655 130.524752 16.34834 28.158317 23.605627 48.707328 22.373567 67.538209-2.292206 34.57854-20.627806 51.300386-54.336536 63.683415-2.125407 0.780783-4.312212 1.558495-8.284687 2.965541-7.104815 2.53166-10.855232 4.061502-13.808494 5.695722-4.007267 2.214435-16.095583 8.426927-18.130939 9.573029-1.059122 0.596588-1.927909 1.109264-2.639107 1.553379 6.201236 41.97909 39.309284 134.447085 71.533196 191.772698l8.670473 7.389294 3.838422 3.27151 0.011256 0.026606c1.657756 0.255827 3.698229 0.398066 5.854335 0.398066 27.382651 0 100.745519-23.035646 130.715087-42.835597 34.847669-22.997784 56.363705-49.580209 59.839877-70.951959C932.903236 681.138444 919.65142 617.491869 886.290615 543.89978z"  horiz-adv-x="1024" />

    
    <glyph glyph-name="wangyinzhifu" unicode="&#58895;" d="M927.508218 579.824842c0.026759 23.913889-18.975667 43.305534-42.457765 43.305534L143.211477 623.130376c-23.482099 0-42.490606-19.391645-42.490606-43.305534l0-114.857456 826.787348 0L927.508218 579.824842zM100.720871 385.837846l0-325.732929c0-23.899293 19.055943-43.305534 42.490606-43.305534l741.838977 0c23.457772 0 42.48574 19.406241 42.48574 43.305534L927.536194 385.837846 100.720871 385.837846zM204.092703 267.428761c0-7.375709-5.913704-13.376987-13.195757-13.376987L165.598895 254.051774c-7.280837 0-13.195757 6.001278-13.195757 13.376987L152.403138 306.587892l0.026759 0c0 7.402468 5.91492 13.362392 13.194541 13.362392l25.272508 0c7.282053 0 13.195757-5.959924 13.195757-13.362392L204.092703 267.428761zM294.693271 267.428761c0-7.375709-5.913704-13.376987-13.194541-13.376987l-25.299267 0c-7.279621 0-13.195757 6.001278-13.195757 13.376987L243.003706 306.587892l0.027975 0c0 7.402468 5.906406 13.362392 13.195757 13.362392l25.272508 0c7.279621 0 13.194541-5.959924 13.194541-13.362392L294.694487 267.428761zM384.770825 267.428761c0-7.375709-5.908838-13.376987-13.216434-13.376987l-25.272508 0c-7.279621 0-13.194541 6.001278-13.194541 13.376987L333.087342 306.587892c0 7.402468 5.913704 13.362392 13.194541 13.362392l25.272508 0c7.30638 0 13.216434-5.959924 13.216434-13.362392L384.770825 267.428761zM850.008536 227.649313l-24.143772-105.802022c-1.49363-6.619164-7.468149-12.165542-13.968115-13.228598-0.173932 0-0.308943-0.025543-0.471929-0.025543l-51.850118 0-2.300044-0.149606L706.163957 108.443545c-0.497471-0.040138-1.021701-0.066897-1.48025-0.066897L652.792234 108.376648c-7.251646 0.120415-11.748347 6.149668-10.092948 13.538757l24.169314 105.814185c1.668779 7.400036 8.907045 13.456048 16.202478 13.456048l48.957731 0c0.498687 0.053518 0.994942 0.093656 1.48025 0.093656l59.615047 0c0.700595 0 1.346456-0.040138 1.870686-0.161769l44.962149 0C847.196425 241.11874 851.717452 235.061512 850.008536 227.649313z"  horiz-adv-x="1024" />

    
    <glyph glyph-name="leimupinleifenleileibie" unicode="&#59385;" d="M320 384 192 384c-70.4 0-128-57.6-128-128l0-128c0-70.4 57.6-128 128-128l128 0c70.4 0 128 57.6 128 128l0 128C448 326.4 390.4 384 320 384zM384 128c0-35.2-28.8-64-64-64L192 64c-35.2 0-64 28.8-64 64l0 128c0 35.2 28.8 64 64 64l128 0c35.2 0 64-28.8 64-64L384 128zM768 832l-128 0C569.6 832 512 774.4 512 704l0-128c0-70.4 57.6-128 128-128l128 0c70.4 0 128 57.6 128 128L896 704C896 774.4 838.4 832 768 832zM832 576c0-35.2-28.8-64-64-64l-128 0C604.8 512 576 540.8 576 576L576 704c0 35.2 28.8 64 64 64l128 0c35.2 0 64-28.8 64-64L832 576zM768 384l-128 0c-70.4 0-128-57.6-128-128l0-128c0-70.4 57.6-128 128-128l128 0c70.4 0 128 57.6 128 128l0 128C896 326.4 838.4 384 768 384zM832 128c0-35.2-28.8-64-64-64l-128 0c-35.2 0-64 28.8-64 64l0 128c0 35.2 28.8 64 64 64l128 0c35.2 0 64-28.8 64-64L832 128zM320 832 192 832C121.6 832 64 774.4 64 704l0-128c0-70.4 57.6-128 128-128l128 0c70.4 0 128 57.6 128 128L448 704C448 774.4 390.4 832 320 832zM384 576c0-35.2-28.8-64-64-64L192 512C156.8 512 128 540.8 128 576L128 704c0 35.2 28.8 64 64 64l128 0c35.2 0 64-28.8 64-64L384 576z"  horiz-adv-x="1024" />

    
    <glyph glyph-name="yonghu" unicode="&#58943;" d="M675.2 419.2c61.6 48.8 101.6 124.8 101.6 210.4C776.8 776 658.4 896 512 896S247.2 776 247.2 628.8c0-85.6 40-160.8 101.6-210.4C185.6 353.6 70.4 192.8 70.4 5.6l0-88.8c0-24.8 20-44.8 44-44.8l795.2 0c24.8 0 44 20 44 44.8l0 88.8C953.6 192.8 838.4 353.6 675.2 419.2zM336.8 629.6c0 97.6 78.4 176.8 175.2 176.8s175.2-79.2 175.2-176.8S608.8 452.8 512 452.8C415.2 452 336.8 532 336.8 629.6zM856-37.6 167.2-37.6l0 43.2c0 191.2 154.4 347.2 344.8 347.2 189.6 0 344-156 344-347.2L856-37.6z"  horiz-adv-x="1024" />

    
    <glyph glyph-name="chuzhi-copy" unicode="&#58996;" d="M833.428 726.857h-642.858c-70.993 0-128.572-57.578-128.572-128.572v-30.815h900v30.815c0 70.993-57.579 128.572-128.572 128.572zM62 169.714c0-70.993 57.579-128.572 128.572-128.572h642.858c70.993 0 128.572 57.579 128.572 128.572v312.042h-900v-312.042zM659.45 399.193l77.592-92.465 77.615 92.465h61.072l-107.893-128.614h65.485c6.022 0 10.907-4.607 10.907-10.264v-22.308c0-5.678-4.886-10.264-10.907-10.264h-74.807v-20.978h74.807c6.022 0 10.907-4.607 10.907-10.264v-22.308c0-5.678-4.886-10.264-10.907-10.264h-74.786v-32.122c0-6.022-4.607-10.886-10.264-10.886h-22.308c-5.678 0-10.264 4.864-10.264 10.886v32.122h-74.85c-6.022 0-10.886 4.607-10.886 10.264v22.308c0 5.678 4.864 10.264 10.886 10.264h74.828v20.978h-74.872c-6.022 0-10.886 4.607-10.886 10.264v22.308c0 5.678 4.864 10.264 10.886 10.264h65.528l-107.936 128.614h61.050z"  horiz-adv-x="1024" />

    
    <glyph glyph-name="huodaofukuan" unicode="&#58920;" d="M927.300271 199.5754h-65.019725c-7.885957 61.45456-61.566163 109.062108-126.758924 109.062108-65.149758 0-118.850442-47.604477-126.715921-109.062108h-49.026652c-26.501197 0-54.356994 26.763312-54.356994 52.585674V669.863889c0 25.823386 27.855796 43.957401 54.356994 43.957401h367.519174c26.477648 0 47.93212-20.930243 47.93212-46.732127v-420.783684c0.004096-25.802908-21.450376-46.73008-47.930072-46.730079z m-498.582508 0h-32.748939c-7.821452 62.047389-58.660379 101.896966-123.854165 101.896966-65.192761 0-119.505728-39.849577-127.304655-101.896966h-32.771464c-17.50023 0-31.67898 14.090696-31.678981 31.460893V404.066596c0 62.833732 108.29829 220.201677 158.330397 220.201678h190.029855c17.476681 0 31.657479-14.092744 31.657478-31.460893v-361.773136c-0.002048-17.368149-14.181821-31.458845-31.659526-31.458845z m-57.240252 334.243958s-48.851568 2.249474-107.46792 0c-25.015541-0.983953-93.964934-92.74344-93.964934-140.240408v-15.577376h201.432854V533.819358zM270.366889 244.122558c43.171058 0 78.171519-35.021963 78.171518-78.237047 0-43.213037-35.000461-78.257525-78.171518-78.257525s-78.170495 35.044488-78.170495 78.257525c0 43.215085 34.999437 78.237047 78.170495 78.237047z m469.809311 0c43.170034 0 78.171519-35.021963 78.171519-78.237047 0-43.213037-35.001485-78.257525-78.171519-78.257525-43.171058 0-78.171519 35.044488-78.171519 78.257525 0.001024 43.215085 35.000461 78.237047 78.171519 78.237047z"  horiz-adv-x="1024" />

    
    <glyph glyph-name="huidingbu" unicode="&#58930;" d="M32.180292 832.023991h962.647008a31.988004 31.988004 0 0 1 0 63.976009h-962.647008a31.988004 31.988004 0 0 1 0-63.976009zM555.568022 755.444708a63.976009 63.976009 0 0 1-83.744596 0.063976l-448.599775-387.43871a63.848057 63.848057 0 0 1 41.84031-112.405848h0.191928l192.567787 0.575784 0.191928-320.519805a63.976009 63.976009 0 0 1 63.976009-63.912033h384.87967a63.784081 63.784081 0 0 1 63.976009 64.039985l-0.191928 320.391853 189.880795-0.575784h0.191928a63.976009 63.976009 0 0 1 41.904286 112.341872l-447.064351 387.43871z m151.111333-435.036861l0.255904-384.623766h-384.87967l-0.255904 384.623766-256.671748-0.767712 448.599775 387.43871 447.064351-387.43871-254.112708 0.767712z"  horiz-adv-x="1027" />

    
    <glyph glyph-name="kuanyi-guanqian-saoshanghu" unicode="&#59094;" d="M88.122 832.33h362.492c36.859-3.595 27.972-67.572 27.972-109.137v-197.885c0-43.013 8.215-95.725-20.675-107.943-18.818-7.951-69.318-2.397-93.665-2.397H172.06c-44.433 0-105.094-10.45-111.913 27.585V804.745c4.97 13.49 13.705 23.266 27.975 27.585zM138 750.776v-257.853h261.525V754.375H139.217c-1.423-0.2-1.327-1.896-1.218-3.6zM574.68 832.33h362.49c14.789-5.409 24.946-15.382 27.978-32.382V447.35c-3.319-14.654-11.076-27.161-25.546-31.178-23.64-6.564-62.934-1.203-91.228-1.203h-186.11c-28.068 0-69.663-5.826-92.445 1.203-32.17 9.921-23.111 71.827-23.111 115.133V715.998c0 49.997-11.132 109.344 27.972 116.332z m49.875-81.554v-257.853h261.53V754.375H625.77c-1.414-0.2-1.319-1.896-1.215-3.6z m-367.353-75.56c36.423 6.78 65.063-17.484 65.688-50.365 0.815-43.372-44.109-67.193-79.066-49.176-40.001 20.614-37.368 90.104 13.378 99.541z m486.559 0c85.798 15.805 84.153-118.154 0-104.335-53.547 8.789-55.276 94.157 0 104.335zM448.182-71.96H89.338c-14.9 4.508-24.959 13.774-29.191 28.787V317.821c3.542 10.569 11.719 22.89 24.326 26.385 23.813 6.608 62.706 1.202 91.233 1.202H361.81c27.507 0 67.538 6.052 92.45-1.202 33.704-9.804 24.326-70.71 24.326-113.934V39.58c0-46.651 10.193-107.375-30.402-111.542zM138 263.855v-257.858h261.525V267.454H139.217c-1.423-0.208-1.327-1.9-1.218-3.6z m827.149 49.169v-100.742c-2.837-33.98-0.406-73.158-1.211-109.137H704.838v58.763c-24.33 2.806-53.926 0.406-80.278 1.208-2.84-75.96-0.406-157.112-1.219-235.072H575.9c-40.789 8.064-29.191 68.407-29.191 116.334V230.272c0 27.95-5.742 69.86 1.216 92.35 8.3 26.834 44.28 22.786 80.287 22.786h176.373V185.9h81.502c0.807 52.767-1.62 108.736 1.21 159.508 39.22 2.29 75.55 1.725 77.85-32.384zM263.288 189.5c38.893 4.245 71.039-32.613 55.958-73.166-20.916-56.202-120.904-35.075-102.18 35.984 5.17 19.64 20.126 34.329 46.223 37.182zM792.422-71.96h-87.583c0.81 30.79-1.62 64.77 1.219 93.552h86.364v-93.552z m172.727 93.553v-61.168c-3.385-17.05-13.495-27.464-29.191-32.38h-62.039c0.81 30.785-1.62 64.766 1.22 93.548h90.01z"  horiz-adv-x="1024" />

    
    <glyph glyph-name="QQweibo" unicode="&#58950;" d="M304.55 732.75c-133.65 0-242.1-108.9-242.1-242.1 0-38.25 9-76.5 26.55-110.25 5.4-10.8 18.45-14.85 28.8-9 10.8 5.4 14.85 18.45 9.45 28.8-14.4 28.35-22.050 58.95-22.050 90.9 0 109.8 89.55 198.9 199.35 198.9s199.35-89.55 199.35-198.9c0-109.8-89.55-198.9-199.35-198.9-15.3 0-30.15 1.8-45 4.95-11.7 2.7-22.95-4.5-25.65-16.2-2.25-11.25 4.5-22.95 16.2-25.65 17.55-4.050 36-5.85 54.45-5.85 133.65 0 242.55 108.9 242.55 242.1 0 132.3-108.45 241.2-242.55 241.2zM262.25 429c13.050-9 28.8-14.4 45.9-14.4 44.55 0 80.1 35.55 80.1 80.1 0 44.1-35.55 80.1-80.1 80.1-44.1 0-80.1-35.55-80.1-80.1 0-11.7 2.25-22.5 6.75-31.95-17.1-18-36-40.95-54.9-68.4-51.3-76.050-108.9-217.8-92.25-399.6 0.9-11.25 10.35-32.4 21.15-32.4h2.25c11.7 0 20.7 24.3 19.8 36-12.6 135 16.2 261.9 84.15 364.050 15.75 23.85 32.4 50.4 47.25 66.6zM754.55 554.55c-17.55-0.9-35.55 3.15-51.75 10.8-56.25 27-80.55 94.050-53.55 150.3 26.55 56.7 94.050 80.55 150.3 53.55 56.25-26.55 80.1-94.050 53.55-150.3-3.6-7.65-8.1-15.3-13.5-22.050-4.050-5.4-3.15-13.050 1.8-17.1 5.4-4.050 13.050-3.15 17.1 2.25 6.3 8.1 11.7 17.1 16.65 26.55 32.85 68.4 3.6 150.75-64.8 183.15-68.4 32.4-150.75 3.15-183.15-65.25-32.4-68.4-3.15-150.75 65.25-183.15 19.8-9.45 41.4-13.95 63-13.5 6.75 0.45 12.15 5.85 12.15 12.6-0.45 7.2-6.3 12.6-13.050 12.15zM954.35 461.85c-72 26.55-126.9 70.2-162.45 130.050-8.55 13.95-14.85 27.45-19.35 39.15 7.65 4.5 14.4 11.25 18.45 19.8 10.8 22.5 0.9 49.95-21.6 60.75-22.95 10.8-49.95 1.35-60.75-21.6-10.8-22.95-1.35-49.95 21.6-60.75 5.85-2.7 11.7-4.050 18-4.5 4.95-13.050 12.15-28.35 21.6-44.55 26.55-45 78.75-105.75 175.95-141.75 6.3-2.25 12.6 0.45 15.3 6.3 0 0.45 0.45 0.45 0.45 1.35 2.25 6.3-0.9 13.050-7.2 15.75z"  horiz-adv-x="1025" />

    
    <glyph glyph-name="pingguo" unicode="&#58942;" d="M812.298469 351.911011c1.503892-154.900894 145.877541-206.353204 147.541421-207.121149-1.311906-3.48775-23.134341-73.434735-76.186538-145.653557-45.88471-62.363529-93.369305-124.471075-168.307932-125.718986-73.690716-1.311906-97.369019 40.669084-181.618978 40.669084-84.217962 0-110.520076-39.421174-180.211079-41.98099-72.282817-2.559816-127.382867 67.323173-173.651549 129.526713-94.521223 127.158883-166.708047 359.302238-69.691003 515.963006 48.092552 77.81842 134.134383 127.094887 227.567683 128.406793 71.034907 1.183915 138.134096-44.604802 181.490988-44.604802 43.484882 0 124.983039 55.004056 210.608899 46.940634 35.869428-1.375901 136.566208-13.439036 201.169576-101.400729-5.087635-3.103777-120.151385-65.307317-118.711488-195.026017zM510.592101 660.01692c-8.351401 58.843781 22.782367 120.023394 58.363815 158.452639 39.709153 43.292896 106.712349 75.482588 162.036382 77.530441 7.071493-59.963701-18.878646-120.151385-57.243895-163.476279-38.429245-43.260898-101.432727-76.954482-163.156302-72.506801z"  horiz-adv-x="1024" />

    
    <glyph glyph-name="qq3" unicode="&#58625;" d="M438.666 122.816l-36.060 0.229-38.539 5.348-27.258 9.733-14.46 11.396-4.27 6.683-2.787 9.048c-0.179 0.667-0.261 1.37-0.261 2.054v1.859c0 0.667 0.082 1.339 0.245 1.972l0.278 2.25c0 0.555 0.049 1.107 0.179 1.663l0.522 7.662c0.066 0.749 0.245 1.467 0.505 2.169l3.635 8.867c0.342 0.7 0.798 1.353 1.339 1.923 0.147 0.213 1.515 1.957 1.679 2.169l2.379 2.934c0.375 0.441 0.783 0.864 1.255 1.222l5.298 3.847c0.783 0.637 1.679 1.107 2.641 1.434l14.019 5.411-8.282 7.678-15.259 19.334-7.271 12.862c-0.342 0.505-0.62 1.060-0.848 1.646l-4.37 10.645-15.911-17.313-7.728-5.103-9.569-3.262-5.103-0.57c-0.229-0.033-1.386-0.050-1.63-0.050-1.027 0-2.054 0.195-3.032 0.586-1.923 0.767-4.32 2.559-5.231 4.45-0.864 0.864-1.663 1.809-1.989 2.624l-4.499 12.16-2.395 19.318 0.457 18.47 5.853 27.599 6.26 17.394 13.579 24.745 16.808 21.713 26.832 24.795-0.847 3.603c-0.164 0.653-0.245 1.339-0.245 2.004v8.623c0 0.718 0.098 1.418 0.278 2.103l5.021 15.813 4.695 8.803 0.816 7.693 5.591 16.269 1.989 3.048v7.728l3.635 21.42 7.711 23.116 10.174 21.112 20.133 28.723 16.073 17.278 16.775 14.491 17.231 10.597 33.795 12.65 37.445 6.472 31.723 0.505 23.997-2.754 31.235-7.581 22.528-8.917 14.167-7.547 17.247-11.753 15.421-14.231 12.177-14.689 12.373-21.112 14.345-40.33 3.977-16.872 3.357-22.528 10.841-20.035 4.907-21.438 0.066-3.603-0.472-3.749 0.098-1.957c0-0.668-0.082-1.339-0.245-1.972l-2.103-8.853c-0.164-0.667-0.39-1.32-0.718-1.924l-1.157-2.25 28.708-48.858 11.834-28.594 4.646-19.741 2.379-30.174-2.837-18.862-7.401-17.818-7.581-8.347c-0.603-0.522-1.288-0.962-2.021-1.287l-3.276-1.533c-0.327-0.147-2.004-0.734-2.331-0.847-0.848-0.293-1.711-0.424-2.608-0.424h-2.087c-0.912 0-1.793 0.147-2.657 0.441-0.326 0.113-1.972 0.7-2.282 0.847l-2.559 1.255c-0.376 0.196-1.923 1.239-2.266 1.484-0.229 0.164-1.809 1.353-2.021 1.533l-5.494 5.575-9.261 13.84-6.113-15.259-19.954-29.392 18.503-9.847 12.894-9.993c0.472-0.358 0.912-0.798 1.304-1.255l5.641-8.086 3.457-11.982c0.212-1.142 0.164-2.331-0.129-3.439l-0.195-1.402c0-0.555-0.066-1.125-0.179-1.679l-0.376-1.809c-0.179-0.864-0.488-1.679-0.945-2.429l-0.488-0.848c-0.245-0.718-0.522-1.533-0.7-1.859l-9.619-12.242-9.144-6.081-20.411-8.282-25.268-5.184-36.385-1.207-39.679 4.222-24.241 5.836-28.333 8.77-16.987 0.749-21.958-11.998-24.061-8.2-22.041-2.868-6.195-0.293c-0.113 0.001-0.212 0.001-0.327 0.001zM331.351 168.25l4.417-9.227 5.543-4.629 16.301-7.386 33.679-6.457 12.292-1.255 34.918-0.179 18.908 1.483 15.536 3.701 30.533 14.834 1.94 1.923c1.728 1.564 4.058 2.299 6.341 2.036l15.602-1.402 5.803 0.017c0.555 0 1.107-0.065 1.662-0.179l20.54-6.472 15.292-4.89 44.813-6.862 7.499-0.441 34.299 1.125 27.272 6.113 15.959 7.564 6.293 6.391 1.76 2.412c0.277 0.848 0.667 1.957 0.929 2.379l0.229 1.060c0 0.684 0.098 1.385 0.261 2.036l0.017 0.017-2.754 7.597-3.504 3.652-9.57 7.514-9.863 5.558-15.698 7.89c-0.603 0.358-1.157 0.798-1.663 1.287-3.13 3.211-4.435 9.749-1.238 12.894l10.174 10.824 14.134 21.779 9.048 23.589c0.196 0.522 0.424 1.027 0.734 1.515l1.533 2.788c0.586 1.272 1.515 2.38 2.657 3.211l1.338 0.962c2.478 1.76 6.457 2.004 9.161 0.522 1.434-0.783 2.985-2.169 3.733-3.635l18.112-28.382 1.94-1.076 2.868 2.103 5.641 9.716 2.886 11.248 1.434 10.661-0.962 17.409-5.395 26.376-14.477 33.679-12.372 22.807-13.285 19.285c-0.147 0.229-0.798 1.515-0.929 1.745-0.555 1.125-0.863 2.379-0.863 3.652 0 0.88 0.147 2.576 0.424 3.406l4.872 19.692-1.761 9.945-3.765 11.674-8.819 15.080c-0.537 0.832-0.929 1.76-1.125 2.738-0.033 0.164-0.358 1.745-0.375 1.923l-4.565 29.489-11.2 35.896-15.339 28.723-28.936 28.693-17.213 10.808-20.133 8.966-21.159 6.146-37.022 5.87-29.13-0.488-34.657-5.966-19.105-6.26-21.943-11.118-13.334-10.335-21.339-21.943-18.795-26.816-13.986-32.261-5.282-26.213 0.113-9.486c0-2.054-0.783-4.058-2.184-5.558l-3.603-5.852-2.656-13.384 0.049-2.2c0-1.679-0.522-3.308-1.483-4.695l-4.613-7.678-3.863-14.118 0.293-5.869 1.549-6.243c1.075-3.308-0.066-6.927-2.853-9.032l-24.371-21.192-12.195-13.58-14.574-22.218-10.872-26.506-5.298-24.682-0.376-8.493 0.408-15.096 4.158-15.764 5.314 1.777 12.063 10.352 10.091 15.518c0.164 0.979 0.637 2.478 1.142 3.325 0.767 1.287 2.494 3.391 3.831 4.091 0.050 0.033 1.451 0.734 1.5 0.767 2.428 1.174 5.412 1.044 7.891-0.196 0.245-0.097 0.472-0.196 0.684-0.309 2.119-1.092 4.124-3.308 4.661-5.657l4.728-15.308 14.884-27.502 20.458-20.572 6.261-4.924c1.239-0.586 2.315-1.467 3.113-2.576 1.011-1.385 2.331-4.123 2.331-5.836 0-2.38-1.027-5.103-2.82-6.652-0.912-0.798-2.184-1.549-3.472-1.989v-0.033c-0.667-0.23-2.462-0.749-3.162-0.798l-20.313-4.304-1.695-1.027c-0.538-0.326-1.092-0.57-1.696-0.767l-1.662-0.749-2.82-1.793-2.036-2.511c-0.114-0.129-1.125-1.613-1.255-1.728l-2.511-6.848 0.033-2.152c0-0.555-0.049-2.38-0.179-2.934l-0.261-2.559c0-0.667-0.082-1.339-0.245-1.972l-0.245-1.026z"  horiz-adv-x="1024" />

    
    <glyph glyph-name="weibo" unicode="&#58926;" d="M96 236.8c0-115.2 147.2-204.8 332.8-204.8 185.6 0 332.8 89.6 332.8 204.8 0 115.2-147.2 204.8-332.8 204.8-185.6 0-332.8-89.6-332.8-204.8M755.2 396.8c-12.8 6.4-25.6 6.4-19.2 25.6 12.8 38.4 19.2 70.4 0 96-32 44.8-121.6 44.8-217.6 0 0 0-32-12.8-25.6 12.8 25.6 51.2 19.2 96 0 115.2-51.2 51.2-198.4 0-320-128C83.2 428.8 25.6 326.4 25.6 243.2c0-160 204.8-262.4 409.6-262.4 268.8 0 441.6 153.6 441.6 275.2 0 83.2-64 128-121.6 140.8z m-320-352c-160-19.2-300.8 57.6-313.6 166.4-12.8 102.4 108.8 204.8 275.2 217.6 160 19.2 300.8-57.6 313.6-166.4 6.4-102.4-115.2-198.4-275.2-217.6zM934.4 697.6c-64 70.4-160 96-249.6 76.8-19.2-6.4-32-25.6-32-44.8 12.8-19.2 32-32 51.2-25.6 64 12.8 128-6.4 172.8-57.6 44.8-51.2 57.6-121.6 38.4-179.2-6.4-19.2 6.4-38.4 25.6-44.8 19.2-6.4 38.4 6.4 44.8 25.6 32 76.8 12.8 172.8-51.2 249.6M838.4 608c-32 32-76.8 44.8-121.6 38.4-19.2-6.4-25.6-19.2-25.6-38.4 6.4-19.2 19.2-25.6 38.4-25.6 19.2 6.4 44.8 0 57.6-19.2 12.8-19.2 19.2-38.4 12.8-57.6-6.4-19.2 6.4-32 19.2-38.4 19.2-6.4 32 6.4 38.4 19.2 19.2 38.4 12.8 83.2-19.2 121.6M448 352c-76.8 19.2-160-19.2-198.4-89.6-32-70.4 0-147.2 76.8-172.8 83.2-25.6 179.2 12.8 211.2 89.6S531.2 326.4 448 352z m-57.6-179.2c-12.8-25.6-51.2-38.4-76.8-25.6-25.6 12.8-32 38.4-19.2 64s44.8 32 70.4 25.6c32-12.8 38.4-38.4 25.6-64z m51.2 64c-6.4-12.8-19.2-12.8-25.6-12.8-12.8 6.4-12.8 12.8-6.4 25.6 6.4 6.4 19.2 12.8 25.6 12.8 6.4-6.4 12.8-12.8 6.4-25.6z"  horiz-adv-x="1024" />

    
    <glyph glyph-name="xinyongqia" unicode="&#58999;" d="M949.365029 726.396343H93.739886c-21.474743 0-38.853486-17.2032-38.853486-38.912v-591.842743c0-21.591771 17.437257-38.853486 38.912-38.853486v0.117029h855.508114v-0.117029c21.474743 0 38.912 17.261714 38.912 38.853486V687.484343c0 21.7088-17.349486 38.912-38.853485 38.912z m-19.485258-58.280229v-97.250743H113.225143V668.116114h816.654628z m0-552.930743H113.225143V454.012343h816.683886v-338.826972zM162.260114 300.2368l20.041143-118.608457h56.817372l-20.041143 118.608457zM259.130514 300.2368l20.0704-118.608457h56.788115l-20.041143 118.608457zM356.059429 300.2368l20.041142-118.608457h56.817372l-20.0704 118.608457z"  horiz-adv-x="1024" />

    
    <glyph glyph-name="top-copy" unicode="&#58630;" d="M961.468 883.507h-898.867c-18.842 0-34.133-15.292-34.133-34.133s15.292-34.133 34.133-34.133h898.867c18.773 0 34.065 15.292 34.065 34.133 0 18.91-15.292 34.133-34.065 34.133zM539.511 715.366c-0.751 0.751-1.843 1.092-2.662 1.775-2.594 2.116-5.257 4.233-8.397 5.53-4.233 1.775-8.67 2.662-13.107 2.662v0 0c-4.437 0-8.875-0.887-13.039-2.662-3.891-1.57-7.305-4.028-10.308-6.827-0.273-0.205-0.614-0.273-0.819-0.478l-337.92-337.92c-13.312-13.38-13.312-34.953 0-48.333 13.38-13.312 34.953-13.312 48.333 0l279.62 279.62v-668.467c0-18.91 15.292-34.133 34.133-34.133s34.133 15.223 34.133 34.133v668.467l279.689-279.62c13.38-13.312 34.953-13.312 48.333 0 13.312 13.312 13.312 34.953 0 48.333l-337.988 337.92z"  horiz-adv-x="1024" />

    
    <glyph glyph-name="shouji" unicode="&#58905;" d="M369.162 155.437v-57.117h285.68v57.117h-285.68zM311.963 669.68v-457.117h400.004V669.68H311.963z m342.879-400h-285.68V612.559h285.68V269.68z m-342.879 400v-457.117h400.004V669.68H311.963z m342.879-400h-285.68V612.559h285.68V269.68z m-285.68-171.36h285.68v57.117h-285.68v-57.117zM197.721 784v-800H826.28V784H197.721z m571.441-742.875h-514.32V726.879h514.32v-685.754zM711.967 669.68H311.963v-457.117h400.004V669.68z m-57.125-400h-285.68V612.559h285.68V269.68z m-285.68-171.36h285.68v57.117h-285.68v-57.117z"  horiz-adv-x="1024" />

    
    <glyph glyph-name="weixin" unicode="&#58975;" d="M370.658 506.493c-12.873 0-25.187-10.636-25.746-21.27-0.56-11.195 12.873-22.389 25.746-21.829 12.313 0 21.27 8.955 21.27 21.27 0 12.314-8.955 21.27-21.27 21.829zM656.677 375.518c-8.396 0-17.353-8.955-17.353-17.351 0.561-8.396 8.956-16.791 17.353-16.791 10.073 0 20.709 8.396 20.709 16.791s-10.636 17.351-20.709 17.351zM557.605 375.518c-8.396 0.56-17.911-8.955-17.911-17.351 0-7.836 9.516-16.791 17.352-16.791 10.636 0 20.15 7.835 20.15 16.791 0 8.955-8.955 17.351-19.591 17.351zM504 808C265.413 808 72 614.587 72 376s193.413-432 432-432 432 193.413 432 432S742.587 808 504 808z m-64.497-532.673c-19.591 1.119-38.621 2.798-57.651 6.158-10.636 1.679-19.591 1.679-29.665-3.918-13.993-7.836-28.546-14.554-43.098-21.829-2.24-1.119-4.479-1.68-8.396-3.357 1.118 3.917 1.118 6.157 1.679 8.395 4.478 13.434 8.956 27.427 13.433 40.86 2.24 6.157 0 8.396-3.918 11.754-20.709 15.113-38.62 34.143-50.934 57.092-25.188 47.576-17.911 106.347 16.791 148.887 31.904 38.062 73.324 58.771 122.578 64.926 41.419 5.598 81.72 0 119.781-17.91 43.658-20.71 76.683-52.054 90.676-100.19 0.56-1.119 1.119-3.358 1.119-4.478 1.119-1.68 1.68-2.799 1.68-5.038v-0.001h-19.031c-39.74 0.561-75.003-11.754-104.108-38.062-27.427-24.067-43.658-54.293-47.576-91.234-1.12-14.553 0.56-29.106 3.357-43.657 1.12-7.278 1.12-8.957-6.717-8.398z m297.772-24.626c-9.516-11.755-20.71-22.389-32.464-33.023-4.479-3.918-6.158-7.836-3.919-13.993 3.919-10.635 6.718-21.27 9.516-31.904 0.56-0.56 0.56-2.797 1.68-6.156l0.002-0.001h-0.002v0.001c-12.874 6.717-24.628 12.313-35.261 19.59-10.075 6.717-19.031 7.836-30.785 5.037-48.696-12.313-94.593-4.478-136.013 22.949-32.465 21.269-53.174 50.934-58.212 90.114-3.918 33.024 5.038 63.81 26.307 89.556 27.427 33.022 63.249 50.935 105.787 55.973 47.576 5.597 90.676-5.038 128.177-35.263 27.426-21.829 45.338-49.256 49.256-85.077 3.357-29.108-6.158-55.413-24.069-77.803zM497.715 462.835c11.755-0.56 21.27 9.515 21.27 21.27 0 11.754-8.955 21.27-21.27 21.829-12.874 0.56-25.747-10.075-25.747-21.27 0.559-11.195 10.074-20.71 25.747-21.829z"  horiz-adv-x="1024" />

    
    <glyph glyph-name="dianhua1" unicode="&#58951;" d="M508.8 896C228.2 896 0 667.8 0 387.2c0-280.5 228.2-508.8 508.8-508.8 280.5 0 508.8 228.2 508.8 508.8S789.3 896 508.8 896z m0-993.4C241.6-97.4 24.2 120 24.2 387.2c0 267.2 217.4 484.6 484.6 484.6 267.2 0 484.6-217.4 484.6-484.6 0-267.2-217.4-484.6-484.6-484.6zM529.3 265.5c-23.7-15.9-65.6 35.2-100.2 86.7-34.7 51.6-66 109.6-42.3 125.4 34 22.6 62.1 35.2 24.3 107.2-37.8 72.1-80.8 30.9-113.7 9-38-25.3-31.4-148.8 62.1-288 93.5-139.1 205.6-192.3 243.6-167 32.9 21.9 87.5 45.8 35.1 108.1-52.6 62.4-74.9 41.2-108.9 18.6zM523 641s-10.2 0.7-17.5-4.1c-11.4-7.6-15.3-23.5-7.2-35.6 7.2-10.8 21.4-11.3 21.4-11.3 44.9-2.1 94.6-33.1 132.5-89.9 37.8-56.8 47.1-114.5 31.7-156.6 0 0-5.1-13.3 2.1-24.1 8.1-12.1 24.3-14.8 35.8-7.3 7.3 4.9 10.7 14.5 10.7 14.5 13.1 36.5 21.6 113.4-37.3 201.8S561.8 638.8 523 641zM599.7 360.5c7.9-11.9 24.3-14.7 35.6-7.3 11 7.3 11.6 20.7 11.6 20.7 1.5 33.6-7.5 70.7-29.1 103.3-21.7 32.6-52.6 55.2-84.3 66.9 0 0-12.6 4.6-23.7-2.7-11.3-7.5-15-23.6-7.1-35.4 4.7-7.1 12.7-9.9 12.7-9.9 15.5-6.2 38.8-16.2 59.5-47.2 20.6-31 20.8-56.2 20.6-72.9 0-0.1-0.4-8.6 4.2-15.5z"  horiz-adv-x="1024" />

    
    <glyph glyph-name="tubiaozhizuomoban" unicode="&#58626;" d="M512-127.99800000000005c281.6 0 511.999 230.4 511.999 511.999S793.599 896 512 896s-512-230.4-512-511.999 230.4-511.999 512-511.999m-51.2 700.798V656h92.8v-83.2h188.8v-38.4h-188.8v-51.2h156.8s-3.2-28.8-22.4-83.2c-19.2-54.4-38.4-80-38.4-80l304-99.2s-9.6-28.8-22.4-54.4c-12.8-25.6-32-51.2-32-51.2l-291.2 137.6s-54.4-60.8-112-86.4c-54.4-25.6-121.6-44.8-188.8-25.6-70.4 16-118.4 60.8-112 144 9.6 83.2 96 112 169.6 112s208-48 208-48 12.8 25.6 22.4 54.4c12.8 28.8 12.8 54.4 12.8 54.4h-288v28.8h140.8v54.4h-176v38.4h176v-6.4m80-287.999s-86.4-102.4-188.8-102.4-124.8 48-124.8 83.2 22.4 73.6 108.8 80c86.4 6.4 204.8-60.8 204.8-60.8m0 0"  horiz-adv-x="1024" />

    
    <glyph glyph-name="gouwuchekong" unicode="&#58900;" d="M332.8 105.47199999999998q19.456 0 36.864-7.168t30.208-19.968 20.48-30.208 7.68-36.864-7.68-36.864-20.48-30.208-30.208-20.48-36.864-7.68q-20.48 0-37.888 7.68t-30.208 20.48-20.48 30.208-7.68 36.864 7.68 36.864 20.48 30.208 30.208 19.968 37.888 7.168zM758.784 103.42399999999998q19.456 0 37.376-7.168t30.72-19.968 20.48-30.208 7.68-36.864-7.68-36.864-20.48-30.208-30.72-20.48-37.376-7.68-36.864 7.68-30.208 20.48-20.48 30.208-7.68 36.864 7.68 36.864 20.48 30.208 30.208 19.968 36.864 7.168zM930.816 685.056q28.672 0 44.544-7.68t22.528-18.944 6.144-24.064-3.584-22.016-13.312-37.888-22.016-62.976-23.552-68.096-18.944-53.248q-13.312-40.96-33.28-56.832t-49.664-15.872l-35.84 0-65.536 0-86.016 0-96.256 0-253.952 0 14.336-92.16 517.12 0q49.152 0 49.152-41.984 0-20.48-9.728-35.84t-38.4-14.336l-49.152 0-94.208 0-118.784 0-119.808 0-99.328 0-55.296 0q-20.48 0-34.304 9.216t-23.04 24.064-14.848 32.256-8.704 32.768q-1.024 6.144-5.632 29.696t-11.264 58.88-14.848 78.848-16.384 87.552q-19.456 103.424-44.032 230.4l-76.8 0q-15.36 0-25.6 7.68t-16.896 18.432-9.216 23.04-2.56 22.528q0 20.48 13.824 33.792t37.376 12.288l103.424 0q20.48 0 32.768-6.144t19.456-15.36 10.24-18.944 5.12-16.896q2.048-8.192 4.096-23.04t4.096-30.208q3.072-18.432 6.144-38.912l700.416 0zM892.928 593.9200000000001l-641.024 2.048 35.84-185.344 535.552-1.024z"  horiz-adv-x="1028" />

    
    <glyph glyph-name="icon-test" unicode="&#58936;" d="M907.96365748 434.48699259s-46.71017718 244.66773333-443.72241066 267.96942223c0 0-81.74038282 58.25422222-105.0906169 58.25422221 0 0-11.67997155 11.65084445-23.35023407-11.65084444 0 0 46.71017718-46.60337778 11.67997156-104.8576 0 0-233.54117689-139.8004243-198.51097126-384.47786667 0 0 81.74038282-302.92195555 467.08235377-256.31857777 0 0 361.98202785 81.55591111 291.91190756 431.08124444z m-315.27185066-174.76266667L534.30165808 306.32770370000003s46.71988622 58.25422222 58.39014874 69.90506667c0 0 23.35994311 34.95253333-70.06041127 34.95253333 0 0-23.35023408 128.15928889 70.06041127 58.25422222 0 0 105.09061689-104.8576 0-209.7152z m233.54117688 34.95253333l-58.39014873 46.60337778s46.71017718 58.25422222 58.39014873 69.90506667c0 0 23.35023408 34.96224237-70.07012029 34.96224238 0 0-23.35023408 128.14957985 70.07012029 58.25422222 0-0.00970903 105.09061689-104.86730903 0-209.72490905z"  horiz-adv-x="1024" />

    
    <glyph glyph-name="arrLeft-fill" unicode="&#59017;" d="M234.88884163 518.52193155l279.65492248-279.65492248 278.8075161 278.8075161z"  horiz-adv-x="1024" />

    


  </font>
</defs>
</svg>
